<svg id="line-letra" xmlns="http://www.w3.org/2000/svg">
<g id="variable-3" class="oculto">
<path d="M2.6,7.62a72.49,72.49,0,0,1,12.58-.57c4.31.18,8.53.94,12.83.19a2.53,2.53,0,0,0,1.75-3.08,2.56,2.56,0,0,0-3.08-1.74c-3.91.68-8-.25-12-.39A72.07,72.07,0,0,0,2.6,2.62,2.57,2.57,0,0,0,.1,5.12c0,1.21,1.15,2.68,2.5,2.5Z" transform="translate(-0.1 -1.98)" fill="var(--color-letras)" style="transition: 1s;"/>
</g>
<g id="variable-2" class="oculto">
<path d="M3.27,7.5c4-.8,8.15-.31,12.18,0a42,42,0,0,0,12.61-.28c3.14-.66,1.81-5.48-1.33-4.82-4,.85-8.14.39-12.17,0a43.39,43.39,0,0,0-12.62.21A2.53,2.53,0,0,0,.2,5.76,2.53,2.53,0,0,0,3.27,7.5Z" transform="translate(-0.1 -1.98)" fill="var(--color-letras)" style="transition: 1s;"/>
</g>
<g id="variable-1">
<path d="M3,7.61q12.22-.23,24.44,0c3.22.07,3.22-4.93,0-5Q15.2,2.38,3,2.61c-3.21.06-3.22,5.06,0,5Z" transform="translate(-0.1 -1.98)" fill="var(--color-letras)" style="transition: 1s;"/>
</g>
</svg>
